<svg width="30" height="30" viewBox="0 0 30 30" fill="none" xmlns="http://www.w3.org/2000/svg">
<path d="M15 0C6.71532 0 0 6.71532 0 15C0 17.7251 0.72659 20.2812 1.99769 22.4835L0 30L7.7922 28.1575C9.93121 29.3315 12.3876 30 15 30C23.2847 30 30 23.2847 30 15C30 6.71532 23.2847 0 15 0ZM15 27.313C12.4934 27.313 10.161 26.5639 8.21618 25.2772L3.61214 26.4494L4.90318 22.0491C3.50636 20.0523 2.68699 17.622 2.68699 15C2.68699 8.19971 8.19971 2.68699 15 2.68699C21.8003 2.68699 27.313 8.19971 27.313 15C27.313 21.8003 21.8003 27.313 15 27.313Z" fill="#25D366"/>
<path d="M12.9028 6.51389C16.4253 6.51389 19.2917 9.38026 19.2917 12.9028C19.2917 16.4253 16.4253 19.2917 12.9028 19.2917C9.38026 19.2917 6.51389 16.4253 6.51389 12.9028C6.51389 9.38026 9.38026 6.51389 12.9028 6.51389ZM12.9028 16.7361C15.0162 16.7361 16.7361 15.0162 16.7361 12.9028C16.7361 10.7893 15.0162 9.06944 12.9028 9.06944C10.7893 9.06944 9.06944 10.7893 9.06944 12.9028C9.06944 15.0162 10.7893 16.7361 12.9028 16.7361Z" fill="#25D366"/>
<path d="M22.4069 20.4822C22.9384 21.0138 22.9384 21.8753 22.4069 22.4069C21.8757 22.9384 21.0138 22.9384 20.4822 22.4069C20.2165 22.1411 15.6181 17.5427 15.6181 17.5427L17.5427 15.618C17.5427 15.618 22.1411 20.2164 22.4069 20.4822Z" fill="#25D366"/>
</svg>